<?xml version="1.0" encoding="UTF-8"?>
<svg width="100" height="100" viewBox="0 0 100 100" xmlns="http://www.w3.org/2000/svg">
    <!-- Фоновый круг с градиентом -->
    <defs>
        <linearGradient id="logoGradient" x1="0%" y1="0%" x2="100%" y2="100%">
            <stop offset="0%" style="stop-color:#00BFFF;stop-opacity:1" />
            <stop offset="100%" style="stop-color:#3B2F5B;stop-opacity:1" />
        </linearGradient>
        <filter id="glow" x="-20%" y="-20%" width="140%" height="140%">
            <feGaussianBlur stdDeviation="2" result="blur" />
            <feComposite in="SourceGraphic" in2="blur" operator="over" />
        </filter>
    </defs>
    
    <!-- Основной круг -->
    <circle cx="50" cy="50" r="45" fill="url(#logoGradient)" filter="url(#glow)" />
    
    <!-- Стилизованная буква G -->
    <path d="M50 20 C 35 20, 20 35, 20 50 C 20 65, 35 80, 50 80 C 65 80, 80 65, 80 50 C 80 35, 65 20, 50 20 Z M 50 30 C 60 30, 70 40, 70 50 C 70 60, 60 70, 50 70 C 40 70, 30 60, 30 50 C 30 40, 40 30, 50 30 Z" 
          fill="none" 
          stroke="white" 
          stroke-width="3"
          stroke-linecap="round"
          stroke-linejoin="round" />
    
    <!-- Электронная схема -->
    <path d="M 35 50 L 65 50 M 50 35 L 50 65" 
          stroke="white" 
          stroke-width="2"
          stroke-dasharray="4,4" />
    
    <!-- Точки соединения -->
    <circle cx="35" cy="50" r="3" fill="white" />
    <circle cx="50" cy="35" r="3" fill="white" />
    <circle cx="65" cy="50" r="3" fill="white" />
    <circle cx="50" cy="65" r="3" fill="white" />
</svg> 